<svg preserveAspectRatio="none" width="1920" height="500" viewBox="0 0 360 230" fill="none" xmlns="http://www.w3.org/2000/svg">
<g clip-path="url(#clip0_6_69)">
<path d="M228.016 42.6067C232.998 41.2043 237.863 39.4174 242.569 37.2619L289.361 15.8262C312.05 5.43226 338.081 5.1371 361 15.0139V230H-1V33L19.6437 27.4506C36.5829 22.8971 54.4219 22.8792 71.3701 27.3987L120.5 40.5L136.462 46.8849C156.914 55.0654 179.494 56.2647 200.697 50.2965L228.016 42.6067Z" fill="#8393CD"/>
<path d="M203.589 80.2915C210.841 79.1008 217.94 77.1143 224.756 74.368L260.032 60.1562C275.752 53.8228 292.825 51.5888 309.646 53.6641L361 60V230H-1V90.1571L18.9428 80.8233C32.9354 74.2745 49.0982 74.202 63.1489 80.6252C76.8887 86.9062 91.8192 90.1571 106.927 90.1571H135.345C140.773 90.1571 146.191 89.7152 151.547 88.8359L203.589 80.2915Z" fill="#6E7CAD"/>
<path d="M155.65 131.932C175.819 135.836 196.718 132.061 214.247 121.349C225.899 114.228 239.14 110.117 252.776 109.384L361 103.573V230H-1V126L25.0751 117.997C41.101 113.078 58.1063 112.267 74.5275 115.638L125 126L155.65 131.932Z" fill="#636C8B"/>
</g>
<defs>
<clipPath id="clip0_6_69">
<rect width="360" height="230" fill="white"/>
</clipPath>
</defs>
</svg>
